<svg width="2939" height="929" xmlns="http://www.w3.org/2000/svg" xmlns:xlink="http://www.w3.org/1999/xlink" xml:space="preserve" overflow="hidden"><g transform="translate(-732 -260)"><path d="M876.5 388.45 1195 388.45 1195 314.5 1441.5 561 1195 807.5 1195 733.55 876.5 733.55Z" stroke="#F7D5CD" stroke-width="6.875" stroke-miterlimit="8" stroke-opacity="0.901961" fill="#F7D5CD" fill-rule="evenodd" fill-opacity="0.901961"/><text font-family="Aptos,Aptos_MSFontService,sans-serif" font-weight="400" font-size="46" transform="matrix(1 0 0 1 1098.52 523)">Pick a </text><text font-family="Aptos,Aptos_MSFontService,sans-serif" font-weight="400" font-size="46" transform="matrix(1 0 0 1 1079.25 573)">specific </text><text font-family="Aptos,Aptos_MSFontService,sans-serif" font-weight="400" font-size="46" transform="matrix(1 0 0 1 1033.44 623)">optimization</text><path d="M735.5 561C735.5 482.852 798.628 419.5 876.5 419.5 954.372 419.5 1017.5 482.852 1017.5 561 1017.5 639.148 954.372 702.5 876.5 702.5 798.628 702.5 735.5 639.148 735.5 561Z" stroke="#FFFFFF" stroke-width="6.875" stroke-miterlimit="8" fill="#E97132" fill-rule="evenodd"/><text fill="#FFFFFF" font-family="Aptos,Aptos_MSFontService,sans-serif" font-weight="400" font-size="46" transform="matrix(1 0 0 1 802.348 573)">Identify</text><path d="M1617.5 388.45 1936 388.45 1936 314.5 2182.5 561 1936 807.5 1936 733.55 1617.5 733.55Z" stroke="#CCD4CC" stroke-width="6.875" stroke-miterlimit="8" stroke-opacity="0.901961" fill="#CCD4CC" fill-rule="evenodd" fill-opacity="0.901961"/><text font-family="Aptos,Aptos_MSFontService,sans-serif" font-weight="400" font-size="46" transform="matrix(1 0 0 1 1831.4 498)">Create </text><text font-family="Aptos,Aptos_MSFontService,sans-serif" font-weight="400" font-size="46" transform="matrix(1 0 0 1 1817.58 548)">analysis </text><text font-family="Aptos,Aptos_MSFontService,sans-serif" font-weight="400" font-size="46" transform="matrix(1 0 0 1 1781.62 598)">tools to </text><text font-family="Aptos,Aptos_MSFontService,sans-serif" font-weight="400" font-size="46" transform="matrix(1 0 0 1 1939.96 598)">find </text><text font-family="Aptos,Aptos_MSFontService,sans-serif" font-weight="400" font-size="46" transform="matrix(1 0 0 1 1787.86 649)">candidates</text><path d="M1476.5 561C1476.5 482.852 1539.85 419.5 1618 419.5 1696.15 419.5 1759.5 482.852 1759.5 561 1759.5 639.148 1696.15 702.5 1618 702.5 1539.85 702.5 1476.5 639.148 1476.5 561Z" stroke="#FFFFFF" stroke-width="6.875" stroke-miterlimit="8" fill="#196B24" fill-rule="evenodd"/><text fill="#FFFFFF" font-family="Aptos,Aptos_MSFontService,sans-serif" font-weight="400" font-size="46" transform="matrix(1 0 0 1 1540.68 573)">Analyze</text><path d="M2359.5 388.45 2678 388.45 2678 314.5 2924.5 561 2678 807.5 2678 733.55 2359.5 733.55Z" stroke="#CCDFEF" stroke-width="6.875" stroke-miterlimit="8" stroke-opacity="0.901961" fill="#CCDFEF" fill-rule="evenodd" fill-opacity="0.901961"/><text font-family="Aptos,Aptos_MSFontService,sans-serif" font-weight="400" font-size="46" transform="matrix(1 0 0 1 2532.01 523)">Implement </text><text font-family="Aptos,Aptos_MSFontService,sans-serif" font-weight="400" font-size="46" transform="matrix(1 0 0 1 2607.98 573)">the </text><text font-family="Aptos,Aptos_MSFontService,sans-serif" font-weight="400" font-size="46" transform="matrix(1 0 0 1 2516.29 623)">optimization</text><path d="M2218.5 561C2218.5 482.852 2281.63 419.5 2359.5 419.5 2437.37 419.5 2500.5 482.852 2500.5 561 2500.5 639.148 2437.37 702.5 2359.5 702.5 2281.63 702.5 2218.5 639.148 2218.5 561Z" stroke="#FFFFFF" stroke-width="6.875" stroke-miterlimit="8" fill="#0F9ED5" fill-rule="evenodd"/><text fill="#FFFFFF" font-family="Aptos,Aptos_MSFontService,sans-serif" font-weight="400" font-size="46" transform="matrix(1 0 0 1 2269.21 573)">Optimize</text><path d="M3100.5 388.45 3419 388.45 3419 314.5 3665.5 561 3419 807.5 3419 733.55 3100.5 733.55Z" stroke="#DFCDDC" stroke-width="6.875" stroke-miterlimit="8" stroke-opacity="0.901961" fill="#DFCDDC" fill-rule="evenodd" fill-opacity="0.901961"/><text font-family="Aptos,Aptos_MSFontService,sans-serif" font-weight="400" font-size="46" transform="matrix(1 0 0 1 3296.97 548)">Quantify </text><text font-family="Aptos,Aptos_MSFontService,sans-serif" font-weight="400" font-size="46" transform="matrix(1 0 0 1 3253.48 598)">Fmax impact</text><path d="M2959.5 561C2959.5 482.852 3022.85 419.5 3101 419.5 3179.15 419.5 3242.5 482.852 3242.5 561 3242.5 639.148 3179.15 702.5 3101 702.5 3022.85 702.5 2959.5 639.148 2959.5 561Z" stroke="#FFFFFF" stroke-width="6.875" stroke-miterlimit="8" fill="#A02B93" fill-rule="evenodd"/><text fill="#FFFFFF" font-family="Aptos,Aptos_MSFontService,sans-serif" font-weight="400" font-size="46" transform="matrix(1 0 0 1 3014.26 573)">Measure</text><path d="M3102.88 700 3102.88 810 3089.12 810 3089.12 700ZM3102.88 851.25 3102.88 961.25 3089.12 961.25 3089.12 851.25ZM3102.88 1002.5 3102.88 1015.87 2992.5 1015.87 2992.5 1002.12 3096 1002.12 3089.12 1009 3089.12 1002.5ZM2951.25 1015.87 2841.25 1015.87 2841.25 1002.12 2951.25 1002.12ZM2800 1015.87 2690 1015.87 2690 1002.12 2800 1002.12ZM2648.75 1015.87 2538.75 1015.87 2538.75 1002.12 2648.75 1002.12ZM2497.5 1015.87 2387.5 1015.87 2387.5 1002.12 2497.5 1002.12ZM2346.25 1015.87 2236.25 1015.87 2236.25 1002.12 2346.25 1002.12ZM2195 1015.87 2085 1015.87 2085 1002.12 2195 1002.12ZM2043.75 1015.87 1933.75 1015.87 1933.75 1002.12 2043.75 1002.12ZM1892.5 1015.87 1782.5 1015.87 1782.5 1002.12 1892.5 1002.12ZM1741.25 1015.87 1631.25 1015.87 1631.25 1002.12 1741.25 1002.12ZM1590 1015.87 1480 1015.87 1480 1002.12 1590 1002.12ZM1438.75 1015.87 1328.75 1015.87 1328.75 1002.12 1438.75 1002.12ZM1287.5 1015.87 1177.5 1015.87 1177.5 1002.12 1287.5 1002.12ZM1136.25 1015.87 1026.25 1015.87 1026.25 1002.12 1136.25 1002.12ZM985 1015.87 875 1015.87 875 1002.12 985 1002.12ZM864.125 971.75 864.125 861.75 877.875 861.75 877.875 971.75ZM864.125 820.5 864.125 769.504 877.875 769.504 877.875 820.5ZM836.625 776.379 871 707.629 905.375 776.379Z" fill="#747474"/><text fill="#747474" font-family="Aptos,Aptos_MSFontService,sans-serif" font-weight="400" font-size="83" transform="matrix(1 0 0 1 1709.49 1116)">Iterate &amp; Refine</text></g></svg>